<?xml version="1.0" encoding="UTF-8"?>
<svg id="Calque_2" data-name="Calque 2" xmlns="http://www.w3.org/2000/svg" viewBox="0 0 409.9 409.9">
  <defs>
    <style>
      .cls-1 {
        fill: #e3c85b;
      }
    </style>
  </defs>
  <g id="Calque_1-2" data-name="Calque 1">
    <circle cx="204.95" cy="204.95" r="204.95"/>
    <g>
      <g>
        <rect class="cls-1" x="76.06" y="88.63" width="238.1" height="8.45"/>
        <rect class="cls-1" x="144.46" y="105.53" width="16.82" height="67.61"/>
        <path class="cls-1" d="M144.46,180.36h12.34c2.47,0,4.48,2.01,4.48,4.48v14.78c0,2.47-2.01,4.48-4.48,4.48h-12.34v-23.74h0Z"/>
        <path class="cls-1" d="M112.73,105.53l-15.01,11.5c-9.33,6.39-15.38,19.59-12.93,30.85.65,2.97,3.51,6.59,3.49,9.07-.02,4.46-2.88,11.03-7.19,4.5-8.36-12.7-6.82-31.4,2.34-43.27,1.86-2.41,13.38-12.64,15.45-12.64h13.83Z"/>
        <g>
          <polygon class="cls-1" points="218.88 237.05 226.81 241.21 212.88 268.07 204.95 263.91 218.88 237.05"/>
          <polygon class="cls-1" points="235.78 204.17 243.71 208.32 229.77 235.18 221.85 231.02 235.78 204.17"/>
          <polygon class="cls-1" points="103.34 153.84 111.27 157.99 97.34 184.85 89.41 180.69 103.34 153.84"/>
          <polygon class="cls-1" points="215.74 280.17 254.04 203.11 310.85 210.03 255.56 321.28 215.74 280.17"/>
        </g>
      </g>
      <path class="cls-1" d="M171.37,161.06v32.58c0,10.21-8.28,18.5-18.5,18.5s-18.5-8.28-18.5-18.5v-50.18c-3.59-.04-7.05,1.05-10.03,3.13-4.9,3.41-25.78,44.56-28.2,51.94-3.57,10.91-1.39,16.48,8.09,22.78l90.67,46.21,37.87-76.04-61.41-30.42Z"/>
    </g>
  </g>
</svg>