<?xml version="1.0" encoding="UTF-8"?>
<svg id="Calque_2" xmlns="http://www.w3.org/2000/svg" version="1.1" viewBox="0 0 238.5 232.6">
  <!-- Generator: Adobe Illustrator 29.3.1, SVG Export Plug-In . SVG Version: 2.1.0 Build 151)  -->
  <defs>
    <style>
      .st0 {
        fill: #e3c85b;
      }
    </style>
  </defs>
  <g id="Calque_1-2">
    <g>
      <g>
        <rect class="st0" x=".4" y="0" width="238.1" height="8.4"/>
        <rect class="st0" x="68.8" y="16.9" width="16.8" height="67.6"/>
        <path class="st0" d="M68.8,91.7h12.3c2.5,0,4.5,2,4.5,4.5v14.8c0,2.5-2,4.5-4.5,4.5h-12.3v-23.7h0Z"/>
        <path class="st0" d="M37.1,16.9l-15,11.5c-9.3,6.4-15.4,19.6-12.9,30.9.6,3,3.5,6.6,3.5,9.1,0,4.5-2.9,11-7.2,4.5C-2.9,60.1-1.3,41.4,7.8,29.5c1.9-2.4,13.4-12.6,15.5-12.6h13.8Z"/>
        <g>
          <polygon class="st0" points="143.3 148.4 151.2 152.6 137.3 179.4 129.3 175.3 143.3 148.4"/>
          <polygon class="st0" points="160.1 115.5 168.1 119.7 154.1 146.6 146.2 142.4 160.1 115.5"/>
          <polygon class="st0" points="27.7 65.2 35.7 69.4 21.7 96.2 13.8 92.1 27.7 65.2"/>
          <polygon class="st0" points="140.1 191.5 178.4 114.5 235.2 121.4 179.9 232.6 140.1 191.5"/>
        </g>
      </g>
      <path class="st0" d="M95.7,72.4v32.6c0,10.2-8.3,18.5-18.5,18.5s-18.5-8.3-18.5-18.5v-50.2c-3.6,0-7,1-10,3.1-4.9,3.4-25.8,44.6-28.2,51.9-3.6,10.9-1.4,16.5,8.1,22.8l90.7,46.2,37.9-76-61.4-30.4h0Z"/>
    </g>
  </g>
</svg>